<svg xmlns="http://www.w3.org/2000/svg" width="460" height="160" font-family="Arial" font-size="12"><style>.wire{stroke:black;stroke-width:2;} .gate{fill:white;stroke:black;stroke-width:2;} .text{dominant-baseline:middle;text-anchor:middle;}</style><line class="wire" x1="20" y1="20" x2="440" y2="20" /><line class="wire" x1="20" y1="60" x2="440" y2="60" /><line class="wire" x1="20" y1="100" x2="440" y2="100" /><g><title>H</title><rect class="gate" x="0" y="5" width="40" height="30" rx="4" /><text class="text" x="20" y="20">H</text></g><line class="wire" x1="90" y1="20" x2="90" y2="60" /><circle cx="90" cy="20" r="5" fill="black" /><g><circle cx="90" cy="60" r="10" stroke="black" fill="white" /><line class="wire" x1="90" y1="50" x2="90" y2="70" /><line class="wire" x1="80" y1="60" x2="100" y2="60" /></g><line class="wire" x1="160" y1="60" x2="160" y2="100" /><circle cx="160" cy="60" r="5" fill="black" /><g><circle cx="160" cy="100" r="10" stroke="black" fill="white" /><line class="wire" x1="160" y1="90" x2="160" y2="110" /><line class="wire" x1="150" y1="100" x2="170" y2="100" /></g><g><title>Measurement</title><rect class="gate" x="210" y="5" width="40" height="30" rx="4" /><text class="text" x="230" y="20">M</text></g><g><title>Measurement</title><rect class="gate" x="280" y="45" width="40" height="30" rx="4" /><text class="text" x="300" y="60">M</text></g><g><title>Measurement</title><rect class="gate" x="350" y="85" width="40" height="30" rx="4" /><text class="text" x="370" y="100">M</text></g></svg>