<svg xmlns="http://www.w3.org/2000/svg" width="1020" height="120" font-family="Arial" font-size="12"><style>.wire{stroke:black;stroke-width:2;} .gate{fill:white;stroke:black;stroke-width:2;} .text{dominant-baseline:middle;text-anchor:middle;}</style><line class="wire" x1="20" y1="20" x2="1000" y2="20" /><line class="wire" x1="20" y1="60" x2="1000" y2="60" /><g><title>H</title><rect class="gate" x="0" y="5" width="40" height="30" rx="4" /><text class="text" x="20" y="20">H</text></g><g><title>H</title><rect class="gate" x="70" y="45" width="40" height="30" rx="4" /><text class="text" x="90" y="60">H</text></g><line class="wire" x1="160" y1="20" x2="160" y2="60" /><circle cx="160" cy="20" r="5" fill="black" /><g><rect class="gate" x="140" y="45" width="40" height="30" rx="4" /><text class="text" x="160" y="60">Z</text></g><g><title>H</title><rect class="gate" x="210" y="5" width="40" height="30" rx="4" /><text class="text" x="230" y="20">H</text></g><g><title>H</title><rect class="gate" x="280" y="45" width="40" height="30" rx="4" /><text class="text" x="300" y="60">H</text></g><g><title>X</title><rect class="gate" x="350" y="5" width="40" height="30" rx="4" /><text class="text" x="370" y="20">X</text></g><g><title>X</title><rect class="gate" x="420" y="45" width="40" height="30" rx="4" /><text class="text" x="440" y="60">X</text></g><line class="wire" x1="510" y1="20" x2="510" y2="60" /><circle cx="510" cy="20" r="5" fill="black" /><g><rect class="gate" x="490" y="45" width="40" height="30" rx="4" /><text class="text" x="510" y="60">Z</text></g><g><title>X</title><rect class="gate" x="560" y="5" width="40" height="30" rx="4" /><text class="text" x="580" y="20">X</text></g><g><title>X</title><rect class="gate" x="630" y="45" width="40" height="30" rx="4" /><text class="text" x="650" y="60">X</text></g><g><title>H</title><rect class="gate" x="700" y="5" width="40" height="30" rx="4" /><text class="text" x="720" y="20">H</text></g><g><title>H</title><rect class="gate" x="770" y="45" width="40" height="30" rx="4" /><text class="text" x="790" y="60">H</text></g><g><title>Measurement</title><rect class="gate" x="840" y="5" width="40" height="30" rx="4" /><text class="text" x="860" y="20">M</text></g><g><title>Measurement</title><rect class="gate" x="910" y="45" width="40" height="30" rx="4" /><text class="text" x="930" y="60">M</text></g></svg>