<svg xmlns="http://www.w3.org/2000/svg" width="1370" height="160" font-family="Arial" font-size="12"><style>.wire{stroke:black;stroke-width:2;} .gate{fill:white;stroke:black;stroke-width:2;} .text{dominant-baseline:middle;text-anchor:middle;}</style><line class="wire" x1="20" y1="20" x2="1350" y2="20" /><line class="wire" x1="20" y1="60" x2="1350" y2="60" /><line class="wire" x1="20" y1="100" x2="1350" y2="100" /><line class="wire" x1="20" y1="20" x2="20" y2="100" /><g><circle cx="20" cy="20" r="10" stroke="black" fill="white" /><line class="wire" x1="15" y1="15" x2="25" y2="25" /><line class="wire" x1="15" y1="25" x2="25" y2="15" /></g><g><circle cx="20" cy="100" r="10" stroke="black" fill="white" /><line class="wire" x1="15" y1="95" x2="25" y2="105" /><line class="wire" x1="15" y1="105" x2="25" y2="95" /></g><g><title>H</title><rect class="gate" x="70" y="85" width="40" height="30" rx="4" /><text class="text" x="90" y="100">H</text></g><g><title>RZ(theta=-0.7853981633974483)</title><rect class="gate" x="140" y="85" width="40" height="30" rx="4" /><text class="text" x="160" y="100">RZ</text></g><line class="wire" x1="230" y1="60" x2="230" y2="100" /><circle cx="230" cy="100" r="5" fill="black" /><g><circle cx="230" cy="60" r="10" stroke="black" fill="white" /><line class="wire" x1="230" y1="50" x2="230" y2="70" /><line class="wire" x1="220" y1="60" x2="240" y2="60" /></g><g><title>RZ(theta=0.7853981633974483)</title><rect class="gate" x="280" y="45" width="40" height="30" rx="4" /><text class="text" x="300" y="60">RZ</text></g><line class="wire" x1="370" y1="60" x2="370" y2="100" /><circle cx="370" cy="100" r="5" fill="black" /><g><circle cx="370" cy="60" r="10" stroke="black" fill="white" /><line class="wire" x1="370" y1="50" x2="370" y2="70" /><line class="wire" x1="360" y1="60" x2="380" y2="60" /></g><g><title>RZ(theta=-0.7853981633974483)</title><rect class="gate" x="420" y="45" width="40" height="30" rx="4" /><text class="text" x="440" y="60">RZ</text></g><g><title>H</title><rect class="gate" x="490" y="45" width="40" height="30" rx="4" /><text class="text" x="510" y="60">H</text></g><g><title>RZ(theta=-0.39269908169872414)</title><rect class="gate" x="560" y="85" width="40" height="30" rx="4" /><text class="text" x="580" y="100">RZ</text></g><line class="wire" x1="650" y1="20" x2="650" y2="100" /><circle cx="650" cy="100" r="5" fill="black" /><g><circle cx="650" cy="20" r="10" stroke="black" fill="white" /><line class="wire" x1="650" y1="10" x2="650" y2="30" /><line class="wire" x1="640" y1="20" x2="660" y2="20" /></g><g><title>RZ(theta=0.39269908169872414)</title><rect class="gate" x="700" y="5" width="40" height="30" rx="4" /><text class="text" x="720" y="20">RZ</text></g><line class="wire" x1="790" y1="20" x2="790" y2="100" /><circle cx="790" cy="100" r="5" fill="black" /><g><circle cx="790" cy="20" r="10" stroke="black" fill="white" /><line class="wire" x1="790" y1="10" x2="790" y2="30" /><line class="wire" x1="780" y1="20" x2="800" y2="20" /></g><g><title>RZ(theta=-0.39269908169872414)</title><rect class="gate" x="840" y="5" width="40" height="30" rx="4" /><text class="text" x="860" y="20">RZ</text></g><g><title>RZ(theta=-0.7853981633974483)</title><rect class="gate" x="910" y="45" width="40" height="30" rx="4" /><text class="text" x="930" y="60">RZ</text></g><line class="wire" x1="1000" y1="20" x2="1000" y2="60" /><circle cx="1000" cy="60" r="5" fill="black" /><g><circle cx="1000" cy="20" r="10" stroke="black" fill="white" /><line class="wire" x1="1000" y1="10" x2="1000" y2="30" /><line class="wire" x1="990" y1="20" x2="1010" y2="20" /></g><g><title>RZ(theta=0.7853981633974483)</title><rect class="gate" x="1050" y="5" width="40" height="30" rx="4" /><text class="text" x="1070" y="20">RZ</text></g><line class="wire" x1="1140" y1="20" x2="1140" y2="60" /><circle cx="1140" cy="60" r="5" fill="black" /><g><circle cx="1140" cy="20" r="10" stroke="black" fill="white" /><line class="wire" x1="1140" y1="10" x2="1140" y2="30" /><line class="wire" x1="1130" y1="20" x2="1150" y2="20" /></g><g><title>RZ(theta=-0.7853981633974483)</title><rect class="gate" x="1190" y="5" width="40" height="30" rx="4" /><text class="text" x="1210" y="20">RZ</text></g><g><title>H</title><rect class="gate" x="1260" y="5" width="40" height="30" rx="4" /><text class="text" x="1280" y="20">H</text></g></svg>