<svg xmlns="http://www.w3.org/2000/svg" width="1370" height="160" font-family="Arial" font-size="12"><style>.wire{stroke:black;stroke-width:2;} .gate{fill:white;stroke:black;stroke-width:2;} .text{dominant-baseline:middle;text-anchor:middle;}</style><line class="wire" x1="20" y1="20" x2="1350" y2="20" /><line class="wire" x1="20" y1="60" x2="1350" y2="60" /><line class="wire" x1="20" y1="100" x2="1350" y2="100" /><g><title>H</title><rect class="gate" x="0" y="5" width="40" height="30" rx="4" /><text class="text" x="20" y="20">H</text></g><g><title>RZ(theta=0.7853981633974483)</title><rect class="gate" x="70" y="5" width="40" height="30" rx="4" /><text class="text" x="90" y="20">RZ</text></g><line class="wire" x1="160" y1="20" x2="160" y2="60" /><circle cx="160" cy="60" r="5" fill="black" /><g><circle cx="160" cy="20" r="10" stroke="black" fill="white" /><line class="wire" x1="160" y1="10" x2="160" y2="30" /><line class="wire" x1="150" y1="20" x2="170" y2="20" /></g><g><title>RZ(theta=-0.7853981633974483)</title><rect class="gate" x="210" y="5" width="40" height="30" rx="4" /><text class="text" x="230" y="20">RZ</text></g><line class="wire" x1="300" y1="20" x2="300" y2="60" /><circle cx="300" cy="60" r="5" fill="black" /><g><circle cx="300" cy="20" r="10" stroke="black" fill="white" /><line class="wire" x1="300" y1="10" x2="300" y2="30" /><line class="wire" x1="290" y1="20" x2="310" y2="20" /></g><g><title>RZ(theta=0.7853981633974483)</title><rect class="gate" x="350" y="45" width="40" height="30" rx="4" /><text class="text" x="370" y="60">RZ</text></g><g><title>RZ(theta=0.39269908169872414)</title><rect class="gate" x="420" y="5" width="40" height="30" rx="4" /><text class="text" x="440" y="20">RZ</text></g><line class="wire" x1="510" y1="20" x2="510" y2="100" /><circle cx="510" cy="100" r="5" fill="black" /><g><circle cx="510" cy="20" r="10" stroke="black" fill="white" /><line class="wire" x1="510" y1="10" x2="510" y2="30" /><line class="wire" x1="500" y1="20" x2="520" y2="20" /></g><g><title>RZ(theta=-0.39269908169872414)</title><rect class="gate" x="560" y="5" width="40" height="30" rx="4" /><text class="text" x="580" y="20">RZ</text></g><line class="wire" x1="650" y1="20" x2="650" y2="100" /><circle cx="650" cy="100" r="5" fill="black" /><g><circle cx="650" cy="20" r="10" stroke="black" fill="white" /><line class="wire" x1="650" y1="10" x2="650" y2="30" /><line class="wire" x1="640" y1="20" x2="660" y2="20" /></g><g><title>RZ(theta=0.39269908169872414)</title><rect class="gate" x="700" y="85" width="40" height="30" rx="4" /><text class="text" x="720" y="100">RZ</text></g><g><title>H</title><rect class="gate" x="770" y="45" width="40" height="30" rx="4" /><text class="text" x="790" y="60">H</text></g><g><title>RZ(theta=0.7853981633974483)</title><rect class="gate" x="840" y="45" width="40" height="30" rx="4" /><text class="text" x="860" y="60">RZ</text></g><line class="wire" x1="930" y1="60" x2="930" y2="100" /><circle cx="930" cy="100" r="5" fill="black" /><g><circle cx="930" cy="60" r="10" stroke="black" fill="white" /><line class="wire" x1="930" y1="50" x2="930" y2="70" /><line class="wire" x1="920" y1="60" x2="940" y2="60" /></g><g><title>RZ(theta=-0.7853981633974483)</title><rect class="gate" x="980" y="45" width="40" height="30" rx="4" /><text class="text" x="1000" y="60">RZ</text></g><line class="wire" x1="1070" y1="60" x2="1070" y2="100" /><circle cx="1070" cy="100" r="5" fill="black" /><g><circle cx="1070" cy="60" r="10" stroke="black" fill="white" /><line class="wire" x1="1070" y1="50" x2="1070" y2="70" /><line class="wire" x1="1060" y1="60" x2="1080" y2="60" /></g><g><title>RZ(theta=0.7853981633974483)</title><rect class="gate" x="1120" y="85" width="40" height="30" rx="4" /><text class="text" x="1140" y="100">RZ</text></g><g><title>H</title><rect class="gate" x="1190" y="85" width="40" height="30" rx="4" /><text class="text" x="1210" y="100">H</text></g><line class="wire" x1="1280" y1="20" x2="1280" y2="100" /><g><circle cx="1280" cy="20" r="10" stroke="black" fill="white" /><line class="wire" x1="1275" y1="15" x2="1285" y2="25" /><line class="wire" x1="1275" y1="25" x2="1285" y2="15" /></g><g><circle cx="1280" cy="100" r="10" stroke="black" fill="white" /><line class="wire" x1="1275" y1="95" x2="1285" y2="105" /><line class="wire" x1="1275" y1="105" x2="1285" y2="95" /></g></svg>