<svg xmlns="http://www.w3.org/2000/svg" width="810" height="160" font-family="Arial" font-size="12"><style>.wire{stroke:black;stroke-width:2;} .gate{fill:white;stroke:black;stroke-width:2;} .text{dominant-baseline:middle;text-anchor:middle;}</style><line class="wire" x1="20" y1="20" x2="790" y2="20" /><line class="wire" x1="20" y1="60" x2="790" y2="60" /><line class="wire" x1="20" y1="100" x2="790" y2="100" /><g><title>H</title><rect class="gate" x="0" y="5" width="40" height="30" rx="4" /><text class="text" x="20" y="20">H</text></g><g><title>RZ(theta=1.0471975511965976)</title><rect class="gate" x="70" y="5" width="40" height="30" rx="4" /><text class="text" x="90" y="20">RZ</text></g><g><title>H</title><rect class="gate" x="140" y="45" width="40" height="30" rx="4" /><text class="text" x="160" y="60">H</text></g><line class="wire" x1="230" y1="60" x2="230" y2="100" /><circle cx="230" cy="60" r="5" fill="black" /><g><circle cx="230" cy="100" r="10" stroke="black" fill="white" /><line class="wire" x1="230" y1="90" x2="230" y2="110" /><line class="wire" x1="220" y1="100" x2="240" y2="100" /></g><line class="wire" x1="300" y1="20" x2="300" y2="60" /><circle cx="300" cy="20" r="5" fill="black" /><g><circle cx="300" cy="60" r="10" stroke="black" fill="white" /><line class="wire" x1="300" y1="50" x2="300" y2="70" /><line class="wire" x1="290" y1="60" x2="310" y2="60" /></g><g><title>H</title><rect class="gate" x="350" y="5" width="40" height="30" rx="4" /><text class="text" x="370" y="20">H</text></g><g><title>Measurement</title><rect class="gate" x="420" y="5" width="40" height="30" rx="4" /><text class="text" x="440" y="20">M</text></g><g><title>Measurement</title><rect class="gate" x="490" y="45" width="40" height="30" rx="4" /><text class="text" x="510" y="60">M</text></g><line class="wire" x1="580" y1="60" x2="580" y2="100" /><circle cx="580" cy="60" r="5" fill="black" /><g><circle cx="580" cy="100" r="10" stroke="black" fill="white" /><line class="wire" x1="580" y1="90" x2="580" y2="110" /><line class="wire" x1="570" y1="100" x2="590" y2="100" /></g><line class="wire" x1="650" y1="20" x2="650" y2="100" /><circle cx="650" cy="20" r="5" fill="black" /><g><rect class="gate" x="630" y="85" width="40" height="30" rx="4" /><text class="text" x="650" y="100">Z</text></g><g><title>Measurement</title><rect class="gate" x="700" y="85" width="40" height="30" rx="4" /><text class="text" x="720" y="100">M</text></g></svg>